<svg xmlns="http://www.w3.org/2000/svg" width="140" height="24" fill="none"><path fill="#000" d="M20.165 22.733a.639.639 0 0 1-.176.93.657.657 0 0 1-.34.098h-3.684c-.614 0-1.083-.096-1.428-.293a2.356 2.356 0 0 1-.82-.798l-6.312-8.19a1.257 1.257 0 0 0-.453-.383c-.097-.044-.333-.12-.829-.12h-.67v9.136a.622.622 0 0 1-.184.456.651.651 0 0 1-.461.192H.645a.663.663 0 0 1-.46-.192.634.634 0 0 1-.185-.455V.872A.622.622 0 0 1 .186.421a.65.65 0 0 1 .459-.19h4.163c.172.002.337.07.458.19.12.12.188.283.187.451v8.69h.329c.247.01.494-.028.727-.111.161-.07.302-.18.406-.32l6.177-7.765a2.857 2.857 0 0 1 1.052-.87 3.266 3.266 0 0 1 1.342-.25h3.59c.122 0 .241.034.344.098a.633.633 0 0 1 .157.942l-7.542 9.243a7.731 7.731 0 0 1-.674.72 5.511 5.511 0 0 1 1.028 1.075l7.776 10.409zM39.878 7.24c.584 1.521.875 3.135.86 4.76a12.933 12.933 0 0 1-.86 4.76 11.393 11.393 0 0 1-2.443 3.818 11.14 11.14 0 0 1-3.792 2.52 13.64 13.64 0 0 1-9.752 0 11.229 11.229 0 0 1-3.807-2.52 11.35 11.35 0 0 1-2.456-3.82 12.932 12.932 0 0 1-.86-4.76 12.943 12.943 0 0 1 .86-4.76 11.355 11.355 0 0 1 2.456-3.818A11.191 11.191 0 0 1 23.89.9a12.892 12.892 0 0 1 4.88-.9c1.672-.02 3.33.29 4.878.91a11.3 11.3 0 0 1 3.79 2.52 11.312 11.312 0 0 1 2.439 3.81zm-8.406 11.455a5.458 5.458 0 0 0 1.988-1.383 6.273 6.273 0 0 0 1.268-2.233A9.72 9.72 0 0 0 35.183 12a9.72 9.72 0 0 0-.455-3.08 6.335 6.335 0 0 0-1.27-2.242 5.418 5.418 0 0 0-1.986-1.387 7.72 7.72 0 0 0-5.411 0 5.474 5.474 0 0 0-2.003 1.39 6.361 6.361 0 0 0-1.285 2.242 9.564 9.564 0 0 0-.46 3.077 9.55 9.55 0 0 0 .46 3.076 6.277 6.277 0 0 0 1.282 2.234 5.511 5.511 0 0 0 2.006 1.384 7.728 7.728 0 0 0 5.41 0zM66.784.246h-3.142c-.204 0-.38.007-.53.019a1.942 1.942 0 0 0-.543.12 1.425 1.425 0 0 0-.533.36 2.33 2.33 0 0 0-.355.506l-6.624 12.31c-.13.24-.256.496-.375.757a11.911 11.911 0 0 0-.36-.728L47.636 1.246a2.145 2.145 0 0 0-.376-.52 1.49 1.49 0 0 0-.528-.345 1.943 1.943 0 0 0-.544-.12 6.68 6.68 0 0 0-.53-.018h-3.14a.663.663 0 0 0-.458.192.633.633 0 0 0-.184.453v22.226a.622.622 0 0 0 .186.451.651.651 0 0 0 .459.19h3.653a.664.664 0 0 0 .46-.19.635.635 0 0 0 .186-.45V9.6l5.546 10.217c.191.365.474.676.823.903.363.23.787.348 1.218.341h.574a2.21 2.21 0 0 0 1.217-.34c.35-.228.633-.54.824-.905L62.49 9.643v13.471a.622.622 0 0 0 .187.451.651.651 0 0 0 .458.19h3.652a.663.663 0 0 0 .459-.19.634.634 0 0 0 .186-.45V.887a.622.622 0 0 0-.188-.453.65.65 0 0 0-.462-.188zm24.9 6.995c.585 1.521.876 3.135.86 4.76a12.94 12.94 0 0 1-.86 4.76 11.397 11.397 0 0 1-2.443 3.817 11.13 11.13 0 0 1-3.792 2.52 13.64 13.64 0 0 1-9.751 0 11.235 11.235 0 0 1-3.807-2.52 11.347 11.347 0 0 1-2.456-3.82 12.93 12.93 0 0 1-.86-4.76 12.94 12.94 0 0 1 .86-4.76A11.355 11.355 0 0 1 71.89 3.42 11.191 11.191 0 0 1 75.698.9a12.892 12.892 0 0 1 4.88-.9 12.765 12.765 0 0 1 4.874.91 11.281 11.281 0 0 1 3.79 2.52 11.306 11.306 0 0 1 2.443 3.81zM83.28 18.696a5.463 5.463 0 0 0 1.99-1.383 6.274 6.274 0 0 0 1.267-2.233c.316-.996.47-2.036.454-3.079a9.686 9.686 0 0 0-.454-3.08 6.353 6.353 0 0 0-1.269-2.242 5.437 5.437 0 0 0-1.988-1.387 7.72 7.72 0 0 0-5.411 0 5.474 5.474 0 0 0-2.003 1.39 6.338 6.338 0 0 0-1.283 2.242 9.528 9.528 0 0 0-.462 3.077 9.515 9.515 0 0 0 .462 3.076 6.257 6.257 0 0 0 1.282 2.234 5.517 5.517 0 0 0 2.004 1.384 7.728 7.728 0 0 0 5.41 0zm30.701-11.42a12.6 12.6 0 0 1 .861 4.725 12.603 12.603 0 0 1-.867 4.726 10.978 10.978 0 0 1-2.448 3.735 11.013 11.013 0 0 1-3.795 2.434c-1.55.588-3.2.882-4.862.865h-8.543a.663.663 0 0 1-.458-.19.632.632 0 0 1-.186-.45V.887a.62.62 0 0 1 .186-.451.65.65 0 0 1 .459-.19h8.542a13.228 13.228 0 0 1 4.864.867 10.924 10.924 0 0 1 3.792 2.432 10.625 10.625 0 0 1 2.449 3.73h.006zm-8.403 11.42a5.452 5.452 0 0 0 1.987-1.384 6.32 6.32 0 0 0 1.276-2.235c.32-.995.475-2.033.458-3.076a9.543 9.543 0 0 0-.463-3.077 6.332 6.332 0 0 0-1.276-2.237 5.494 5.494 0 0 0-1.987-1.38 7.108 7.108 0 0 0-2.702-.49h-3.705v14.367h3.704a7.1 7.1 0 0 0 2.702-.488h.006zM139.999 12a12.94 12.94 0 0 1-.859 4.76 11.396 11.396 0 0 1-2.443 3.817 11.146 11.146 0 0 1-3.793 2.52 13.64 13.64 0 0 1-9.751 0 11.188 11.188 0 0 1-3.807-2.52 11.32 11.32 0 0 1-2.456-3.82 12.92 12.92 0 0 1-.86-4.76 12.947 12.947 0 0 1 .86-4.76 11.319 11.319 0 0 1 2.456-3.818A11.187 11.187 0 0 1 123.153.9a12.89 12.89 0 0 1 4.874-.9 12.746 12.746 0 0 1 4.874.91 11.287 11.287 0 0 1 3.789 2.52 11.342 11.342 0 0 1 2.45 3.81 12.95 12.95 0 0 1 .859 4.761zm-9.27 6.695a5.466 5.466 0 0 0 1.987-1.384 6.22 6.22 0 0 0 1.268-2.232c.316-.996.47-2.036.455-3.079a9.724 9.724 0 0 0-.455-3.08 6.33 6.33 0 0 0-1.269-2.242 5.408 5.408 0 0 0-1.986-1.387 7.722 7.722 0 0 0-5.412 0 5.47 5.47 0 0 0-2.003 1.39 6.334 6.334 0 0 0-1.285 2.242 9.597 9.597 0 0 0-.46 3.077 9.59 9.59 0 0 0 .46 3.076 6.283 6.283 0 0 0 1.283 2.234 5.495 5.495 0 0 0 2.005 1.384 7.732 7.732 0 0 0 5.412 0z"/></svg>