<svg xmlns="http://www.w3.org/2000/svg" width="246" height="235" fill="none"><path fill="#C2D6DF" d="m40.15 10.612 104.62 110.146L.75 159.923l39.4-149.311z"/><path fill="#FDEEE1" d="m99.288 66.905-24.895 16.45L97.065 98.47l2.223-31.565zm88.652.325 24.896 16.448-22.673 15.116-2.223-31.564z"/><g filter="url(#a)"><rect width="97.34" height="125.731" x="102.064" y="32.224" fill="#fff" rx="10" transform="rotate(4.79 102.064 32.224)"/><path stroke="#FCDEC4" stroke-linecap="round" stroke-width="3" d="m111.191 58.904 67.84 5.685m-73.986 64.797 75.727 6.345m-70.307-65.142 75.727 6.345m-81.942 61.918 75.728 6.345m-71.101-50.579 65.76 5.51m-64.965-17.193 67.839 5.684m-74.054 59.699 75.728 6.346M111.984 46.559l75.728 6.345"/></g><path stroke="#FCDEC4" stroke-linecap="round" stroke-linejoin="round" stroke-width="2.5" d="M214.098 83.465v78.17a15.634 15.634 0 0 1-15.634 15.634H89.026a15.634 15.634 0 0 1-15.633-15.634v-78.17"/><path stroke="#FCDEC4" stroke-linecap="round" stroke-linejoin="round" stroke-width="2.5" d="m197.907 74.051 16.191 9.414-18.899 12.6-51.454 34.302L95.854 98.44 73.393 83.465l24.44-16.92"/><path fill="#FCDEC4" d="m143.745 131.06-70.056-47.1v77.972c0 10.449 10.819 14.38 16.228 15.04 33.379.132 102.353.317 111.219 0s12.138-11.214 12.665-16.623V83.96l-70.056 47.1z"/><path stroke="#fff" stroke-linecap="round" stroke-linejoin="round" stroke-width="2.5" d="m73.393 161.635 46.901-46.902m46.901 0 46.902 46.902"/><path stroke="#1F8360" stroke-dasharray="6 6" stroke-width="3" d="M168.114 206.607c51.382-39.31-33.801-44.871-74.465-51.92-50.957-8.834-78.15-48.822-28.45-59.917"/><path stroke="#1F8360" stroke-width="3" d="m88.26 31.382-13.17-6.138m24.4-7.209L94.2 3.598"/><path fill="#1F8360" d="m162.179 214.105-21.324 19.914 40.025-14.821-18.701-5.093z" opacity=".8"/><path fill="#1F8360" d="m162.178 214.106-21.324 19.914 17.52-38.919 3.804 19.005z"/><circle cx="227.038" cy="43.191" r="13.922" stroke="#EE605D" stroke-width="2" transform="rotate(-105.42 227.038 43.191)"/><path stroke="#F8BA32" stroke-width="2" d="m32.628 179.182 13.255 18.637 18.637-13.255-13.254-18.637z"/><defs><filter id="a" width="113.9" height="139.82" x="88.365" y="29.023" color-interpolation-filters="sRGB" filterUnits="userSpaceOnUse"><feFlood flood-opacity="0" result="BackgroundImageFix"/><feColorMatrix in="SourceAlpha" result="hardAlpha" values="0 0 0 0 0 0 0 0 0 0 0 0 0 0 0 0 0 0 127 0"/><feOffset/><feGaussianBlur stdDeviation="2"/><feComposite in2="hardAlpha" operator="out"/><feColorMatrix values="0 0 0 0 0 0 0 0 0 0 0 0 0 0 0 0 0 0 0.25 0"/><feBlend in2="BackgroundImageFix" result="effect1_dropShadow_1127_11546"/><feBlend in="SourceGraphic" in2="effect1_dropShadow_1127_11546" result="shape"/></filter></defs></svg>